<svg xmlns="http://www.w3.org/2000/svg" viewBox="0 0 256 256" width="256" height="256">
	<style>
		tspan { white-space:pre }
		.shp0 { fill: none;stroke: #fff;stroke-width: 7 } 
	</style>
	<path id="Shape 3" class="shp0" d="M195.89 187.65C193.12 187.65 190.75 186.66 188.79 184.67C186.83 182.69 185.85 180.29 185.85 177.49C185.85 174.68 186.83 172.29 188.79 170.3C190.75 168.32 193.12 167.33 195.89 167.33C198.66 167.33 201.03 168.32 202.99 170.3C204.95 172.29 205.93 174.68 205.93 177.49C205.93 180.29 204.95 182.69 202.99 184.67C201.03 186.66 198.66 187.65 195.89 187.65ZM225.69 172.23C225.48 171.95 225.2 171.79 224.86 171.73L217.69 170.62C217.3 169.35 216.76 168.05 216.08 166.73C216.55 166.07 217.26 165.14 218.2 163.93C219.14 162.73 219.81 161.85 220.2 161.29C220.41 161 220.51 160.7 220.51 160.38C220.51 160.01 220.42 159.72 220.24 159.51C219.3 158.16 217.14 155.91 213.77 152.76C213.45 152.49 213.13 152.36 212.79 152.36C212.4 152.36 212.08 152.48 211.85 152.72L206.28 156.96C205.21 156.41 204.03 155.92 202.75 155.5L201.65 148.19C201.63 147.85 201.48 147.56 201.2 147.34C200.93 147.11 200.61 147 200.24 147L191.54 147C190.78 147 190.31 147.37 190.13 148.11C189.79 149.44 189.41 151.9 188.99 155.5C187.76 155.89 186.57 156.4 185.42 157L180.01 152.76C179.67 152.49 179.33 152.36 178.99 152.36C178.42 152.36 177.18 153.31 175.29 155.2C173.39 157.09 172.1 158.51 171.42 159.47C171.19 159.81 171.07 160.11 171.07 160.38C171.07 160.7 171.2 161.01 171.46 161.33C173.21 163.48 174.61 165.3 175.66 166.81C175 168.03 174.49 169.25 174.13 170.46L166.84 171.57C166.55 171.63 166.3 171.8 166.09 172.09C165.88 172.38 165.78 172.69 165.78 173L165.78 181.82C165.78 182.16 165.88 182.47 166.09 182.75C166.3 183.03 166.57 183.19 166.91 183.25L174.09 184.32C174.46 185.61 174.99 186.92 175.7 188.25C175.23 188.91 174.52 189.84 173.58 191.05C172.64 192.25 171.97 193.13 171.58 193.69C171.37 193.98 171.27 194.28 171.27 194.6C171.27 194.94 171.36 195.25 171.54 195.51C172.56 196.94 174.72 199.16 178.01 202.18C178.3 202.47 178.62 202.62 178.99 202.62C179.38 202.62 179.71 202.5 179.97 202.26L185.5 198.01C186.57 198.57 187.75 199.06 189.03 199.48L190.13 206.79C190.15 207.13 190.3 207.42 190.58 207.64C190.85 207.87 191.17 207.98 191.54 207.98L200.24 207.98C201 207.98 201.47 207.61 201.65 206.87C201.99 205.54 202.37 203.08 202.79 199.48C204.02 199.09 205.21 198.58 206.36 197.97L211.77 202.26C212.13 202.5 212.47 202.62 212.79 202.62C213.36 202.62 214.59 201.68 216.47 199.8C218.35 197.92 219.65 196.49 220.35 195.51C220.59 195.25 220.71 194.94 220.71 194.6C220.71 194.26 220.58 193.92 220.31 193.61C218.43 191.28 217.03 189.45 216.12 188.13C216.64 187.15 217.15 185.95 217.65 184.52L224.9 183.4C225.22 183.35 225.48 183.18 225.69 182.89C225.9 182.6 226 182.29 226 181.98L226 173.16C226 172.82 225.9 172.51 225.69 172.23Z" />
	<path id="Shape 3" class="shp0" d="M135 139L251 139L251 215.7L135 215.7L135 139Z" />
	<path id="Shape 3" class="shp0" d="M185.87 215.7L205.79 215.7L205.79 237L185.87 237L185.87 215.7Z" />
	<path id="Shape 3" class="shp0" d="M161.26 237L184.7 237L206.96 237L231.57 237" />
	<path id="Shape 3" class="shp0" d="M165.03 227.7L4 226.77C4 226.77 4.09 180.97 25.8 158.97C47.52 136.97 98.38 120.43 98.38 120.43" />
	<path id="Shape 2" class="shp0" d="M137.95 135.65C105.29 135.65 78.89 106 78.89 69.32C78.89 32.65 105.29 3 137.95 3C170.6 3 197 32.65 197 69.32C197 106 170.6 135.65 137.95 135.65Z" />
</svg>