<svg xmlns="http://www.w3.org/2000/svg" viewBox="0 0 256 256" width="256" height="256">
	<style>
		tspan { white-space:pre }
		.shp0 { fill: none;stroke: #fff;stroke-width: 7 } 
	</style>
	<path id="Shape 2" class="shp0" d="" />
	<path id="Shape 2" class="shp0" d="" />
	<path id="Shape 2" class="shp0" d="M175.5 187.33C171.96 187.33 168.93 186.08 166.43 183.57C163.92 181.07 162.67 178.04 162.67 174.5C162.67 170.96 163.92 167.93 166.43 165.43C168.93 162.92 171.96 161.67 175.5 161.67C179.04 161.67 182.07 162.92 184.57 165.43C187.08 167.93 188.33 170.96 188.33 174.5C188.33 178.04 187.08 181.07 184.57 183.57C182.07 186.08 179.04 187.33 175.5 187.33ZM213.6 167.86C213.33 167.51 212.98 167.3 212.55 167.23L203.37 165.83C202.87 164.22 202.19 162.59 201.32 160.91C201.92 160.08 202.82 158.9 204.02 157.38C205.23 155.86 206.08 154.75 206.58 154.05C206.85 153.68 206.98 153.29 206.98 152.89C206.98 152.43 206.86 152.06 206.63 151.79C205.43 150.09 202.67 147.25 198.36 143.27C197.96 142.94 197.54 142.77 197.11 142.77C196.6 142.77 196.2 142.92 195.9 143.22L188.78 148.58C187.41 147.88 185.91 147.26 184.27 146.73L182.87 137.5C182.84 137.07 182.64 136.71 182.29 136.43C181.94 136.14 181.53 136 181.06 136L169.94 136C168.97 136 168.36 136.47 168.13 137.4C167.7 139.08 167.21 142.18 166.68 146.73C165.11 147.23 163.59 147.86 162.12 148.63L155.2 143.27C154.76 142.94 154.33 142.77 153.89 142.77C153.16 142.77 151.58 143.96 149.16 146.35C146.73 148.74 145.09 150.54 144.22 151.74C143.92 152.18 143.77 152.56 143.77 152.89C143.77 153.29 143.93 153.7 144.27 154.1C146.51 156.8 148.3 159.11 149.63 161.01C148.8 162.55 148.15 164.09 147.68 165.63L138.35 167.03C137.99 167.1 137.67 167.31 137.4 167.68C137.13 168.05 137 168.43 137 168.84L137 179.96C137 180.4 137.13 180.79 137.4 181.14C137.67 181.49 138.02 181.7 138.45 181.77L147.63 183.12C148.1 184.76 148.78 186.41 149.68 188.09C149.08 188.92 148.18 190.1 146.98 191.62C145.77 193.14 144.92 194.25 144.42 194.95C144.15 195.32 144.02 195.71 144.02 196.11C144.02 196.54 144.13 196.93 144.37 197.26C145.67 199.06 148.43 201.87 152.64 205.68C153.01 206.05 153.43 206.23 153.89 206.23C154.4 206.23 154.81 206.08 155.15 205.78L162.22 200.42C163.59 201.12 165.09 201.74 166.73 202.27L168.13 211.5C168.16 211.93 168.36 212.29 168.71 212.57C169.06 212.86 169.47 213 169.94 213L181.06 213C182.03 213 182.63 212.53 182.87 211.6C183.3 209.92 183.79 206.82 184.32 202.27C185.89 201.77 187.41 201.14 188.88 200.37L195.8 205.78C196.27 206.08 196.71 206.23 197.11 206.23C197.84 206.23 199.41 205.05 201.82 202.67C204.22 200.3 205.88 198.5 206.78 197.26C207.08 196.93 207.23 196.54 207.23 196.11C207.23 195.67 207.06 195.25 206.73 194.85C204.32 191.91 202.54 189.61 201.37 187.93C202.04 186.7 202.69 185.18 203.32 183.37L212.6 181.97C213 181.9 213.33 181.69 213.6 181.32C213.87 180.95 214 180.57 214 180.16L214 169.04C214 168.6 213.87 168.21 213.6 167.86Z" />
	<path id="Shape 2" class="shp0" d="M128 141C105.88 141 88 123.12 88 101C88 78.88 105.88 61 128 61C150.12 61 168 78.88 168 101C168 123.12 150.12 141 128 141Z" />
	<path id="Shape 2" class="shp0" d="M145 156L119 156L92 156C92 156 66.52 151.72 62 195" />
	<path id="Shape 1" class="shp0" d="M127.5 243C64.18 243 13 191.82 13 128.5C13 65.18 64.18 14 127.5 14C190.82 14 242 65.18 242 128.5C242 191.82 190.82 243 127.5 243Z" />
</svg>