<svg width="54" height="54" viewBox="0 0 54 54" fill="none" xmlns="http://www.w3.org/2000/svg">
<path d="M27 50C14.317 50 4 39.683 4 27C4 14.317 14.317 4 27 4C39.683 4 50 14.317 50 27C50 39.683 39.683 50 27 50ZM27 5C14.869 5 5 14.869 5 27C5 39.131 14.869 49 27 49C39.131 49 49 39.131 49 27C49 14.869 39.131 5 27 5Z" fill="#fff"/>
<path d="M20.4189 19.012C20.4189 21.638 22.7709 22.957 25.3119 23.991L25.9999 24.271V14.441L25.4289 14.523C22.3389 14.97 20.4189 16.689 20.4189 19.012ZM24.9999 22.771C22.4669 21.641 21.4189 20.526 21.4189 19.011C21.4189 17.36 22.7749 16.09 24.9999 15.614V22.771Z" fill="#fff"/>
<path d="M27.9999 39.534L28.5639 39.461C31.7029 39.054 33.5769 37.385 33.5769 34.997C33.5769 32.375 31.2269 31.059 28.6879 30.029L27.9999 29.75V39.534ZM28.9999 31.248C31.5299 32.374 32.5769 33.486 32.5769 34.997C32.5769 36.725 31.2819 37.937 28.9999 38.379V31.248Z" fill="#fff"/>
<path d="M29 24.295V15.617C30.986 16.058 31.994 17.194 31.999 19H32H38.484C38.319 15.318 34.015 12.016 29 11.695V9H25V11.69C19.797 11.975 15.943 15.002 15.558 19.17C14.933 25.903 20.641 28.141 25 29.722V38.355C22.983 37.926 22.001 36.824 22 35H15.515C15.672 38.706 19.981 42.033 25 42.355V45H29V42.359C34.128 42.071 37.979 39.032 38.439 34.846C39.177 28.139 33.406 25.888 29 24.295ZM37.445 34.737C37.026 38.542 33.343 41.273 28.489 41.379L28 41.39V44H26V41.39L25.513 41.377C21.29 41.272 17.53 38.88 16.684 36H21.099C21.39 37.497 22.448 39.028 25.431 39.445L26 39.525V29.021L25.67 28.902C20.371 26.984 16.027 24.936 16.554 19.262C16.961 14.857 21.483 12.757 25.511 12.671L26 12.661V10H28V12.662L28.487 12.674C32.701 12.778 36.454 15.146 37.311 18H32.888C32.503 16.103 31.013 14.877 28.571 14.523L28 14.441V24.998L28.33 25.117C33.684 27.046 38.064 29.102 37.445 34.737Z" fill="#fff"/>
</svg>
