<svg xmlns="http://www.w3.org/2000/svg" viewBox="0 0 256 256" width="256" height="256">
	<style>
		tspan { white-space:pre }
		.shp0 { fill: #fff;stroke: #fff } 
		.shp1 { fill: none;stroke: #fff;stroke-width: 7 } 
		.shp2 { fill: none;stroke: #fff;stroke-width: 7 } 
	</style>
	<path id="Shape 3" class="shp0" d="M122.42 84.84L128.05 76.84L133.68 84.83L122.42 84.84Z" />
	<path id="Shape 3" class="shp0" d="M126.68 84.8L130.18 84.82L129.93 126.38L126.43 126.36L126.68 84.8Z" />
	<path id="Shape 3 copy" class="shp0" d="M151.99 119.45L159.83 125.3L151.69 130.71L151.99 119.45Z" />
	<path id="Shape 3 copy 2" class="shp0" d="M151.94 123.49L152 126.99L128.06 128L128 124.5L151.94 123.49Z" />
	<path id="Shape 3" class="shp0" d="M128 131C125.79 131 124 128.99 124 126.5C124 124.01 125.79 122 128 122C130.21 122 132 124.01 132 126.5C132 128.99 130.21 131 128 131Z" />
	<path id="Shape 1" class="shp1" d="M129 209C84.76 209 49 173.24 49 129C49 84.76 84.76 49 129 49C173.24 49 209 84.76 209 129C209 173.24 173.24 209 129 209Z" />
	<path id="Shape 2" class="shp2" d="M64 58L84 44L85 24L113 16L123 32L148 35L162 19L189 32L186 52L204 70L224 67L236 93L223 105L225 133L241 142L233 170L214 170L200 192L206 211L182 228L166 216L142 223L134 241L105 239L101 220L77 209L60 219L39 198L48 181L36 157L18 153L15 125L34 117L40 94L28 77L45 53L64 58Z" />
</svg>