<svg xmlns="http://www.w3.org/2000/svg" viewBox="0 0 256 256" width="256" height="256">
	<style>
		tspan { white-space:pre }
		.shp0 { fill: none;stroke: #fff;stroke-linecap:round;stroke-width: 7 } 
		.shp1 { fill: #ffffff;stroke: #fff;stroke-linecap:round;stroke-width: 7 } 
	</style>
	<path id="Shape 1" class="shp0" d="M128 148L128 66" />
	<path id="Shape 2" class="shp0" d="M110 117L164 148" />
	<path id="Shape 3" class="shp1" d="M128 138C121.92 138 117 133.08 117 127C117 120.92 121.92 116 128 116C134.08 116 139 120.92 139 127C139 133.08 134.08 138 128 138Z" />
	<path id="Shape 6" fill-rule="evenodd" class="shp1" d="M128 27L128 48" />
	<path id="Shape 6" fill-rule="evenodd" class="shp1" d="M78 40L89 59" />
	<path id="Shape 6" fill-rule="evenodd" class="shp1" d="M41 77L60 88L60 88" />
	<path id="Shape 6" fill-rule="evenodd" class="shp1" d="M28 128L50 128" />
	<path id="Shape 6" fill-rule="evenodd" class="shp1" d="M41 178L60 167" />
	<path id="Shape 6" fill-rule="evenodd" class="shp1" d="M78 215L90 196" />
	<path id="Shape 6" fill-rule="evenodd" class="shp1" d="M128 229L128 207" />
	<path id="Shape 6" fill-rule="evenodd" class="shp1" d="M179 215L168 196" />
	<path id="Shape 6" fill-rule="evenodd" class="shp1" d="M217 179L196 167" />
	<path id="Shape 6" fill-rule="evenodd" class="shp1" d="M230 128L207 128" />
	<path id="Shape 6" fill-rule="evenodd" class="shp1" d="M217 76L197 88" />
	<path id="Shape 6" fill-rule="evenodd" class="shp1" d="M180 39L168 59" />
	<path id="Shape 4" class="shp0" d="M129 230C72.04 230 26 183.96 26 127C26 70.04 72.04 24 129 24C185.96 24 232 70.04 232 127C232 183.96 185.96 230 129 230Z" />
	<path id="Shape 5" class="shp0" d="M129 247C62.64 247 9 193.36 9 127C9 60.64 62.64 7 129 7C195.36 7 249 60.64 249 127C249 193.36 195.36 247 129 247Z" />
</svg>