<svg width="208" height="110" viewBox="0 0 208 110" fill="none" xmlns="http://www.w3.org/2000/svg">
<path d="M106.342 23.8302C106.342 14.4936 114.027 8.09744 121.274 8.09744H191.793C201.632 7.80124 208 15.7853 208 23.8799V94.0075C208 102.102 200.246 109.814 192.139 109.814L122.44 109.477C114.332 109.477 106.342 102.741 106.342 94.6465V23.8302Z" fill="white"/>
<path d="M177.207 20.3365H181.386C183.694 20.3365 185.565 18.4654 185.565 16.1573V10.202L191.443 10.1792C199.137 10.1792 205.374 16.4162 205.374 24.1099V92.9274C205.374 100.621 199.137 106.858 191.443 106.858H122.834C115.141 106.858 108.904 100.621 108.904 92.9274V24.1099C108.904 16.4162 115.141 10.1792 122.834 10.1792L130.121 10.202L130.121 16.1883C130.138 18.4821 132.003 20.3365 134.301 20.3365H138.48C140.778 20.3365 142.642 18.4821 142.659 16.1883L142.659 10.202H173.028V16.1573C173.028 18.4654 174.899 20.3365 177.207 20.3365Z" fill="url(#paint0_linear)"/>
<path d="M173.163 4.1792C173.163 1.87109 175.034 0 177.342 0H181.521C183.829 0 185.7 1.87109 185.7 4.1792V16.0899C185.7 18.398 183.829 20.2691 181.521 20.2691H177.342C175.034 20.2691 173.163 18.398 173.163 16.0899V4.1792Z" fill="white"/>
<path d="M130.256 4.1792C130.256 1.87109 132.127 0 134.436 0H138.615C140.923 0 142.794 1.87109 142.794 4.1792V16.0899C142.794 18.398 140.923 20.2691 138.615 20.2691H134.436C132.127 20.2691 130.256 18.398 130.256 16.0899V4.1792Z" fill="white"/>
<path d="M132.346 3.50301C132.346 2.68393 133.01 2.01994 133.829 2.01994H139.221C140.04 2.01994 140.704 2.68393 140.704 3.50301V16.6965C140.704 17.5155 140.04 18.1795 139.221 18.1795H133.829C133.01 18.1795 132.346 17.5155 132.346 16.6965V3.50301Z" fill="url(#paint1_linear)"/>
<path d="M175.113 3.50301C175.113 2.68393 175.777 2.01994 176.596 2.01994H181.988C182.807 2.01994 183.471 2.68393 183.471 3.50301V16.6965C183.471 17.5155 182.807 18.1795 181.988 18.1795H176.596C175.777 18.1795 175.113 17.5155 175.113 16.6965V3.50301Z" fill="url(#paint2_linear)"/>
<path d="M116.326 38.1004C116.326 32.3301 121.003 27.6524 126.774 27.6524H187.79C193.56 27.6524 198.238 32.3301 198.238 38.1004V86.6488C198.238 92.419 193.56 97.0968 187.79 97.0968H126.774C121.003 97.0968 116.326 92.419 116.326 86.6488V38.1004Z" fill="white"/>
<path d="M150.711 36.2334C150.711 37.7009 149.537 38.8906 148.089 38.8906C146.642 38.8906 145.468 37.7009 145.468 36.2334C145.468 34.7658 146.642 33.5762 148.089 33.5762C149.537 33.5762 150.711 34.7658 150.711 36.2334Z" fill="url(#paint3_linear)"/>
<path d="M141.694 42.398C141.694 43.8656 140.52 45.0552 139.072 45.0552C137.625 45.0552 136.451 43.8656 136.451 42.398C136.451 40.9305 137.625 39.7409 139.072 39.7409C140.52 39.7409 141.694 40.9305 141.694 42.398Z" fill="url(#paint4_linear)"/>
<path d="M135.612 51.4325C135.612 52.9 134.439 54.0897 132.991 54.0897C131.543 54.0897 130.37 52.9 130.37 51.4325C130.37 49.965 131.543 48.7753 132.991 48.7753C134.439 48.7753 135.612 49.965 135.612 51.4325Z" fill="url(#paint5_linear)"/>
<path d="M190.029 62.3801C190.029 79.3447 176.181 93.0973 159.099 93.0973C143.16 93.0973 130.037 81.1245 128.351 65.741L124.346 65.9886L129.726 56.3123L137.166 65.0938L133.072 65.4492C134.625 78.3884 145.709 88.4206 159.151 88.4206C173.657 88.4206 185.416 76.7381 185.416 62.327C185.416 47.9159 173.657 36.2334 159.151 36.2334C157.811 34.4537 157.839 33.4527 159.099 31.663C176.181 31.663 190.029 45.4155 190.029 62.3801Z" fill="url(#paint6_linear)"/>
<path d="M151.996 58.3415V61.6432H141.234V59.0064L144.852 55.3441C145.903 54.2398 146.583 53.4961 146.891 53.113C147.199 52.7298 147.417 52.3955 147.545 52.1101C147.673 51.8246 147.736 51.5091 147.736 51.1635C147.736 50.818 147.609 50.5325 147.353 50.3071C147.105 50.0817 146.756 49.9691 146.305 49.9691C145.855 49.9691 145.393 50.0968 144.919 50.3522C144.453 50.6076 143.905 51.0095 143.274 51.5579L141.065 48.9774C141.817 48.3013 142.459 47.813 142.992 47.5125C144.082 46.904 145.336 46.5998 146.756 46.5998C148.191 46.5697 149.382 46.9454 150.328 47.7266C151.275 48.5079 151.737 49.4845 151.714 50.6564C151.714 51.7758 151.414 52.8012 150.813 53.7327C150.497 54.221 150.084 54.7319 149.573 55.2653C149.062 55.7986 147.999 56.7903 146.384 58.2401V58.3415H151.996Z" fill="#898989"/>
<path d="M158.156 55.7836V54.0595C158.156 53.7365 158.167 53.3045 158.19 52.7636C158.212 52.2152 158.231 51.9185 158.246 51.8734H158.133C157.916 52.3918 157.656 52.8801 157.356 53.3383L155.711 55.7836H158.156ZM163.745 55.7836V58.7698H162.111V61.6432H158.156V58.7698H152.24V55.8287L158.415 46.8139H162.111V55.7836H163.745Z" fill="#898989"/>
<path d="M165.813 70.6274V67.3145H176.518V69.6809L171.29 82.1213H167.143L172.236 70.6274H165.813Z" fill="#898989"/>
<path d="M171.84 57.2551L169.098 55.4441L155.541 73.2006L158.244 75.2001L171.84 57.2551Z" fill="#898989"/>
<path d="M61.69 34.6338V59.7504H50.8536V34.6338H39.7721V26H72.7225V34.6338H61.69Z" fill="white"/>
<path d="M91.1939 59.7504L90.5565 55.826C89.5431 57.2322 88.2029 58.3442 86.5357 59.1618C84.9013 59.9467 83.1688 60.3391 81.3382 60.3391C78.3308 60.3391 76.0753 59.5052 74.5716 57.8373C73.0679 56.1694 72.3161 53.7656 72.3161 50.626V33.8489H82.0737V49.4487C82.0737 50.5606 82.3516 51.46 82.9073 52.1468C83.4957 52.8009 84.3129 53.1279 85.359 53.1279C86.5684 53.1279 87.5491 52.7354 88.301 51.9506C89.0528 51.1657 89.4287 50.2009 89.4287 49.0563V33.8489H99.1864V59.7504H91.1939Z" fill="white"/>
<path d="M17.5064 62.6798C22.5082 62.6798 26.4639 63.9388 29.3735 66.4567C32.283 68.9419 33.7378 72.5062 33.7378 77.1497H23.3909C23.3909 75.1876 22.8678 73.6344 21.8217 72.4899C20.8082 71.3454 19.3535 70.7731 17.4573 70.7731C15.267 70.7731 13.6488 71.4598 12.6026 72.8332C11.5892 74.2066 11.0825 76.1196 11.0825 78.5721V81.7113C11.0825 84.1312 11.5892 86.0441 12.6026 87.4502C13.6488 88.8236 15.2343 89.5103 17.3593 89.5103C19.4515 89.5103 21.0371 88.9708 22.1159 87.8917C23.1947 86.8126 23.7341 85.292 23.7341 83.33H33.7378C33.7378 87.9407 32.3157 91.4724 29.4715 93.9249C26.66 96.3774 22.6717 97.6036 17.5064 97.6036C11.7527 97.6036 7.38831 96.1321 4.41337 93.1891C1.47112 90.2461 0 85.897 0 80.1417C0 74.3865 1.47112 70.0374 4.41337 67.0943C7.38831 64.1513 11.7527 62.6798 17.5064 62.6798Z" fill="white"/>
<path d="M36.7938 97.015V71.1165H46.5523V97.015H36.7938Z" fill="white"/>
<path d="M67.5897 71.1165V77.7383H62.0975V87.5974C62.0975 88.7746 62.2937 89.6411 62.686 90.197C63.0783 90.7203 63.7975 90.9819 64.8437 90.9819H67.5897V96.7207C66.8051 96.9823 65.7917 97.1949 64.5494 97.3584C63.3071 97.5219 62.2283 97.6036 61.3129 97.6036C58.4361 97.6036 56.2131 97.0804 54.6439 96.034C53.1073 94.9876 52.3391 93.2055 52.3391 90.6876V77.7383H48.7103V71.1165H52.7314L54.84 63.2684H62.0975V71.1165H67.5897Z" fill="white"/>
<path d="M82.4646 70.5279C86.4203 70.5279 89.6404 71.1982 92.125 72.5389C94.6095 73.8469 95.8518 75.9888 95.8518 78.9645V89.0689C95.8518 89.6248 95.9826 90.0826 96.2441 90.4423C96.5056 90.802 96.8979 90.9819 97.421 90.9819H99.1864V96.6226C99.0883 96.688 98.8268 96.8025 98.4018 96.966C98.0095 97.0968 97.4374 97.2276 96.6855 97.3584C95.9335 97.5219 95.0672 97.6036 94.0865 97.6036C92.1904 97.6036 90.6211 97.3257 89.3789 96.7698C88.1693 96.1812 87.3356 95.38 86.878 94.3663C85.6357 95.3473 84.2463 96.1321 82.7098 96.7207C81.1733 97.3093 79.3752 97.6036 77.3156 97.6036C71.235 97.6036 68.1947 95.1838 68.1947 90.3442C68.1947 87.8263 68.8649 85.9133 70.2052 84.6053C71.5783 83.2646 73.5398 82.349 76.0897 81.8585C78.6397 81.368 81.9742 81.1227 86.0934 81.1227V79.8474C86.0934 78.8337 85.7337 78.0653 85.0145 77.5421C84.328 77.0189 83.429 76.7573 82.3175 76.7573C81.304 76.7573 80.4214 76.9371 79.6694 77.2968C78.9502 77.6565 78.5906 78.2288 78.5906 79.0136V79.2098H68.9793C68.9466 79.0463 68.9302 78.8174 68.9302 78.5231C68.9302 76.0706 70.0908 74.1249 72.4119 72.6861C74.7657 71.2473 78.1166 70.5279 82.4646 70.5279ZM86.0934 85.7335C83.3146 85.7335 81.255 86.0441 79.9146 86.6654C78.607 87.254 77.9531 88.0552 77.9531 89.0689C77.9531 90.7039 79.0646 91.5214 81.2877 91.5214C82.5627 91.5214 83.6742 91.1781 84.6222 90.4914C85.603 89.8046 86.0934 88.9544 86.0934 87.9407V85.7335Z" fill="white"/>
<path d="M46.7374 62.8814C46.7374 65.6704 44.4765 67.9313 41.6876 67.9313C38.8986 67.9313 36.6377 65.6704 36.6377 62.8814C36.6377 60.0925 38.8986 57.8316 41.6876 57.8316C44.4765 57.8316 46.7374 60.0925 46.7374 62.8814Z" fill="white"/>
<defs>
<linearGradient id="paint0_linear" x1="157.139" y1="10.1792" x2="157.139" y2="106.858" gradientUnits="userSpaceOnUse">
<stop stop-color="#F64C01"/>
<stop offset="1" stop-color="#FF773A"/>
</linearGradient>
<linearGradient id="paint1_linear" x1="136.525" y1="2.01994" x2="136.525" y2="18.1795" gradientUnits="userSpaceOnUse">
<stop stop-color="#F64C01"/>
<stop offset="1" stop-color="#FF773A"/>
</linearGradient>
<linearGradient id="paint2_linear" x1="179.292" y1="2.01994" x2="179.292" y2="18.1795" gradientUnits="userSpaceOnUse">
<stop stop-color="#F64C01"/>
<stop offset="1" stop-color="#FF773A"/>
</linearGradient>
<linearGradient id="paint3_linear" x1="157.188" y1="31.663" x2="157.188" y2="93.0973" gradientUnits="userSpaceOnUse">
<stop stop-color="#F64C01"/>
<stop offset="1" stop-color="#FF773A"/>
</linearGradient>
<linearGradient id="paint4_linear" x1="157.188" y1="31.663" x2="157.188" y2="93.0973" gradientUnits="userSpaceOnUse">
<stop stop-color="#F64C01"/>
<stop offset="1" stop-color="#FF773A"/>
</linearGradient>
<linearGradient id="paint5_linear" x1="157.188" y1="31.663" x2="157.188" y2="93.0973" gradientUnits="userSpaceOnUse">
<stop stop-color="#F64C01"/>
<stop offset="1" stop-color="#FF773A"/>
</linearGradient>
<linearGradient id="paint6_linear" x1="157.188" y1="31.663" x2="157.188" y2="93.0973" gradientUnits="userSpaceOnUse">
<stop stop-color="#F64C01"/>
<stop offset="1" stop-color="#FF773A"/>
</linearGradient>
</defs>
</svg>
