<svg width="2876" height="1629" viewBox="0 0 2876 1629" fill="none" xmlns="http://www.w3.org/2000/svg">
<path d="M2419.22 301.675H2481.21C2515.45 301.675 2543.21 273.919 2543.21 239.68V151.338L2630.4 151C2744.53 151 2837.05 243.52 2837.05 357.65V1378.5C2837.05 1492.63 2744.53 1585.15 2630.4 1585.15H1612.65C1498.52 1585.15 1406 1492.63 1406 1378.5V357.65C1406 243.52 1498.52 151 1612.65 151L1720.74 151.338L1720.75 240.139C1720.99 274.167 1748.65 301.675 1782.74 301.675H1844.73C1878.82 301.675 1906.48 274.167 1906.73 240.139L1906.73 151.338H2357.22V239.68C2357.22 273.919 2384.98 301.675 2419.22 301.675Z" fill="url(#paint0_linear)"/>
<path d="M1753.74 51.9642C1753.74 39.814 1763.59 29.9642 1775.74 29.9642H1855.73C1867.88 29.9642 1877.73 39.814 1877.73 51.9642V247.678C1877.73 259.828 1867.88 269.678 1855.73 269.678H1775.74C1763.59 269.678 1753.74 259.828 1753.74 247.678V51.9642Z" fill="url(#paint1_linear)"/>
<path d="M2388.16 51.9642C2388.16 39.814 2398.01 29.9642 2410.16 29.9642H2490.15C2502.3 29.9642 2512.15 39.814 2512.15 51.9642V247.678C2512.15 259.828 2502.3 269.678 2490.15 269.678H2410.16C2398.01 269.678 2388.16 259.828 2388.16 247.678V51.9642Z" fill="url(#paint2_linear)"/>
<path d="M1516.09 565.187C1516.09 479.59 1585.48 410.2 1671.08 410.2H2576.21C2661.8 410.2 2731.19 479.59 2731.19 565.187V1285.36C2731.19 1370.96 2661.8 1440.35 2576.21 1440.35H1671.08C1585.48 1440.35 1516.09 1370.96 1516.09 1285.36V565.187Z" fill="white"/>
<path d="M2026.16 537.491C2026.16 559.261 2008.75 576.908 1987.28 576.908C1965.8 576.908 1948.39 559.261 1948.39 537.491C1948.39 515.722 1965.8 498.074 1987.28 498.074C2008.75 498.074 2026.16 515.722 2026.16 537.491Z" fill="url(#paint3_linear)"/>
<path d="M1892.4 628.939C1892.4 650.708 1874.99 668.356 1853.52 668.356C1832.04 668.356 1814.63 650.708 1814.63 628.939C1814.63 607.169 1832.04 589.522 1853.52 589.522C1874.99 589.522 1892.4 607.169 1892.4 628.939Z" fill="url(#paint4_linear)"/>
<path d="M1802.19 762.957C1802.19 784.727 1784.78 802.374 1763.31 802.374C1741.83 802.374 1724.42 784.727 1724.42 762.957C1724.42 741.188 1741.83 723.54 1763.31 723.54C1784.78 723.54 1802.19 741.188 1802.19 762.957Z" fill="url(#paint5_linear)"/>
<path d="M2609.42 925.356C2609.42 1177.01 2404 1381.02 2150.59 1381.02C1914.15 1381.02 1719.48 1203.41 1694.47 975.212L1635.07 978.884L1714.88 835.345L1825.24 965.611L1764.51 970.883C1787.55 1162.82 1951.96 1311.64 2151.37 1311.64C2366.55 1311.64 2540.99 1138.34 2540.99 924.568C2540.99 710.791 2366.55 537.491 2151.37 537.491C2131.49 511.091 2131.9 496.243 2150.59 469.694C2404 469.694 2609.42 673.701 2609.42 925.356Z" fill="url(#paint6_linear)"/>
<path d="M2045.23 865.447V914.424H1885.6V875.309L1939.25 820.983C1954.85 804.601 1964.94 793.569 1969.51 787.886C1974.08 782.202 1977.31 777.243 1979.2 773.008C1981.1 768.774 1982.05 764.093 1982.05 758.967C1982.05 753.841 1980.15 749.606 1976.36 746.263C1972.68 742.92 1967.5 741.248 1960.82 741.248C1954.13 741.248 1947.28 743.143 1940.26 746.932C1933.35 750.721 1925.21 756.683 1915.85 764.818L1883.09 726.538C1894.23 716.509 1903.76 709.265 1911.67 704.808C1927.83 695.781 1946.44 691.268 1967.5 691.268C1988.79 690.822 2006.45 696.394 2020.49 707.984C2034.53 719.573 2041.39 734.06 2041.05 751.445C2041.05 768.049 2036.6 783.261 2027.68 797.079C2023 804.323 2016.87 811.901 2009.29 819.813C2001.71 827.725 1985.95 842.435 1961.99 863.943V865.447H2045.23Z" fill="#898989"/>
<path d="M2136.61 827.502V801.927C2136.61 797.135 2136.78 790.727 2137.11 782.704C2137.45 774.569 2137.73 770.167 2137.95 769.498H2136.28C2133.05 777.187 2129.2 784.431 2124.74 791.229L2100.34 827.502H2136.61ZM2219.52 827.502V871.799H2195.28V914.424H2136.61V871.799H2048.85V828.171L2140.46 694.444H2195.28V827.502H2219.52Z" fill="#898989"/>
<path d="M2250.2 1047.7V998.553H2409V1033.66L2331.44 1218.2H2269.92L2345.48 1047.7H2250.2Z" fill="#898989"/>
<path d="M2339.61 849.33L2298.92 822.465L2097.81 1085.87L2137.92 1115.53L2339.61 849.33Z" fill="#898989"/>
<path d="M807.812 506.072V886.737H665.994V506.072H538.12V398H935.288V506.072H807.812Z" fill="#898989"/>
<path d="M1328.71 886.737H1223.15L1205.62 839.572H1197.25C1185.57 856.903 1169.1 870.272 1147.86 879.681C1126.88 888.841 1102.44 893.422 1074.56 893.422C1029.94 893.422 995.151 881.29 970.187 857.026C945.488 832.763 933.139 798.72 933.139 754.897V507.929H1073.36V714.788C1073.36 740.042 1077.08 758.982 1084.52 771.609C1092.22 783.988 1104.57 790.178 1121.56 790.178C1145.73 790.178 1162.86 781.389 1172.95 763.81C1183.31 745.984 1188.49 716.026 1188.49 673.936V507.929H1328.71V886.737Z" fill="#898989"/>
<path d="M372.888 1062.05C326.943 1041.99 286.974 1031.97 252.981 1031.97C218.987 1031.97 192.562 1044.84 173.706 1070.59C154.851 1096.34 145.423 1131.87 145.423 1177.18C145.423 1271.01 183.798 1317.93 260.549 1317.93C295.605 1317.93 339.956 1307.78 393.603 1287.48V1398.89C350.048 1416.96 300.519 1426 245.013 1426C165.872 1426 105.188 1404.58 62.9615 1361.75C21.0006 1318.92 0.0201703 1257.15 0.0201703 1176.43C-0.51098 1126.17 9.44809 1081.85 29.8974 1043.48C50.6123 1004.85 80.3567 975.144 119.131 954.347C157.905 933.302 202.92 923.027 254.176 923.522C311.009 923.522 365.053 935.035 416.309 958.06L372.888 1062.05Z" fill="#898989"/>
<path d="M596.595 1040.51V1419.32H456.371V1040.51H596.595ZM602.172 946.548C602.172 984.676 577.208 1003.74 527.28 1003.74C477.617 1003.74 452.786 984.676 452.786 946.548C452.786 926.493 458.628 911.762 470.314 902.353C482.265 892.945 501.12 888.241 526.881 888.241C552.908 888.241 571.896 893.069 583.847 902.725C596.064 912.381 602.172 926.988 602.172 946.548Z" fill="#898989"/>
<path d="M823.936 1285.99C823.936 1310.5 836.551 1322.76 861.78 1322.76C880.37 1322.76 902.944 1318.42 929.502 1309.76V1404.83C912.24 1412.01 894.712 1417.33 876.918 1420.8C859.39 1424.27 838.941 1426 815.57 1426C769.095 1426 735.234 1415.35 713.988 1394.06C693.007 1372.77 682.517 1339.59 682.517 1294.53V1138.55H633.518V1085.44L695.663 1044.22L731.914 964.745H823.936V1040.51H923.526V1138.55H823.936V1285.99Z" fill="#898989"/>
<path d="M1331 1419.32H1234.2L1207.11 1369.18H1204.32C1186 1390.72 1166.74 1405.57 1146.56 1413.74C1126.64 1421.91 1101.28 1426 1070.47 1426C1031.96 1426 1001.82 1415.23 980.042 1393.69C958.265 1372.15 947.377 1342.19 947.377 1303.82C947.377 1226.07 1005.94 1184.97 1123.05 1180.52L1191.17 1178.29V1173.09C1191.17 1141.89 1174.58 1126.3 1141.38 1126.3C1112.17 1126.3 1074.59 1135.58 1028.64 1154.15L988.01 1067.99C1035.55 1045.21 1095.3 1033.82 1167.27 1033.82C1219.33 1033.82 1259.56 1045.95 1287.98 1070.22C1316.66 1094.48 1331 1128.03 1331 1170.86V1419.32ZM1090.39 1298.99C1090.39 1322.26 1103.67 1333.9 1130.23 1333.9C1147.22 1333.9 1161.7 1328.95 1173.65 1319.04C1185.6 1309.14 1191.57 1296.02 1191.57 1279.68V1250.34L1159.31 1251.45C1113.36 1253.43 1090.39 1269.28 1090.39 1298.99Z" fill="#898989"/>
<defs>
<linearGradient id="paint0_linear" x1="2121.52" y1="151" x2="2121.52" y2="1585.15" gradientUnits="userSpaceOnUse">
<stop stop-color="#F64C01"/>
<stop offset="1" stop-color="#FF773A"/>
</linearGradient>
<linearGradient id="paint1_linear" x1="1815.74" y1="29.9642" x2="1815.74" y2="269.678" gradientUnits="userSpaceOnUse">
<stop stop-color="#F64C01"/>
<stop offset="1" stop-color="#FF773A"/>
</linearGradient>
<linearGradient id="paint2_linear" x1="2450.15" y1="29.9642" x2="2450.15" y2="269.678" gradientUnits="userSpaceOnUse">
<stop stop-color="#F64C01"/>
<stop offset="1" stop-color="#FF773A"/>
</linearGradient>
<linearGradient id="paint3_linear" x1="2122.24" y1="469.694" x2="2122.24" y2="1381.02" gradientUnits="userSpaceOnUse">
<stop stop-color="#F64C01"/>
<stop offset="1" stop-color="#FF773A"/>
</linearGradient>
<linearGradient id="paint4_linear" x1="2122.24" y1="469.694" x2="2122.24" y2="1381.02" gradientUnits="userSpaceOnUse">
<stop stop-color="#F64C01"/>
<stop offset="1" stop-color="#FF773A"/>
</linearGradient>
<linearGradient id="paint5_linear" x1="2122.24" y1="469.694" x2="2122.24" y2="1381.02" gradientUnits="userSpaceOnUse">
<stop stop-color="#F64C01"/>
<stop offset="1" stop-color="#FF773A"/>
</linearGradient>
<linearGradient id="paint6_linear" x1="2122.24" y1="469.694" x2="2122.24" y2="1381.02" gradientUnits="userSpaceOnUse">
<stop stop-color="#F64C01"/>
<stop offset="1" stop-color="#FF773A"/>
</linearGradient>
</defs>
</svg>
