<svg width="2892" height="1629" viewBox="0 0 2892 1629" fill="none" xmlns="http://www.w3.org/2000/svg">
<path d="M2435.22 301.675H2497.21C2531.45 301.675 2559.21 273.919 2559.21 239.68V151.338L2646.4 151C2760.53 151 2853.05 243.52 2853.05 357.65V1378.5C2853.05 1492.63 2760.53 1585.15 2646.4 1585.15H1628.65C1514.52 1585.15 1422 1492.63 1422 1378.5V357.65C1422 243.52 1514.52 151 1628.65 151L1736.74 151.338L1736.75 240.139C1736.99 274.167 1764.65 301.675 1798.74 301.675H1860.73C1894.82 301.675 1922.48 274.167 1922.73 240.139L1922.73 151.338H2373.22V239.68C2373.22 273.919 2400.98 301.675 2435.22 301.675Z" fill="url(#paint0_linear)"/>
<path d="M1769.74 51.9642C1769.74 39.814 1779.59 29.9642 1791.74 29.9642H1871.73C1883.88 29.9642 1893.73 39.814 1893.73 51.9642V247.678C1893.73 259.828 1883.88 269.678 1871.73 269.678H1791.74C1779.59 269.678 1769.74 259.828 1769.74 247.678V51.9642Z" fill="url(#paint1_linear)"/>
<path d="M2404.16 51.9642C2404.16 39.814 2414.01 29.9642 2426.16 29.9642H2506.15C2518.3 29.9642 2528.15 39.814 2528.15 51.9642V247.678C2528.15 259.828 2518.3 269.678 2506.15 269.678H2426.16C2414.01 269.678 2404.16 259.828 2404.16 247.678V51.9642Z" fill="url(#paint2_linear)"/>
<path d="M1532.09 565.187C1532.09 479.59 1601.48 410.2 1687.08 410.2H2592.21C2677.8 410.2 2747.19 479.59 2747.19 565.187V1285.36C2747.19 1370.96 2677.8 1440.35 2592.21 1440.35H1687.08C1601.48 1440.35 1532.09 1370.96 1532.09 1285.36V565.187Z" fill="white"/>
<path d="M2149.93 1366C2395.18 1366 2594 1168.56 2594 925C2594 681.442 2395.18 484 2149.93 484C2131.84 509.695 2131.45 524.065 2150.69 549.616C2358.94 549.616 2527.77 717.34 2527.77 924.237C2527.77 1131.13 2358.94 1298.86 2150.69 1298.86C1942.43 1298.86 1773.61 1131.13 1773.61 924.237C1747.09 899.974 1732.26 900.71 1705.87 925C1705.87 1168.56 1904.68 1366 2149.93 1366Z" fill="url(#paint3_linear)"/>
<path d="M2029.51 549.616C2029.51 570.685 2012.66 587.765 1991.88 587.765C1971.09 587.765 1954.24 570.685 1954.24 549.616C1954.24 528.547 1971.09 511.467 1991.88 511.467C2012.66 511.467 2029.51 528.547 2029.51 549.616Z" fill="url(#paint4_linear)"/>
<path d="M1900.05 638.121C1900.05 659.19 1883.2 676.27 1862.42 676.27C1841.64 676.27 1824.79 659.19 1824.79 638.121C1824.79 617.052 1841.64 599.972 1862.42 599.972C1883.2 599.972 1900.05 617.052 1900.05 638.121Z" fill="url(#paint5_linear)"/>
<path d="M1812.74 767.827C1812.74 788.896 1795.9 805.976 1775.11 805.976C1754.33 805.976 1737.48 788.896 1737.48 767.827C1737.48 746.758 1754.33 729.678 1775.11 729.678C1795.9 729.678 1812.74 746.758 1812.74 767.827Z" fill="url(#paint6_linear)"/>
<path d="M1894 1012.52L1979 959.519C2009.03 998.541 2026.02 1024.83 2054.5 1018.52C2162.29 829.04 2255.5 719.52 2284.5 699.519C2313.5 679.518 2418 665.019 2355.5 734.519C2293 804.019 2294.59 800.807 2237 885.019L2162 1012.52C2135.16 1058.27 2113.82 1118.54 2092.5 1167.02H2006C1978.95 1112.95 1946.8 1076.26 1894 1012.52Z" fill="#898989"/>
<path d="M807.812 506.072V886.737H665.994V506.072H538.12V398H935.288V506.072H807.812Z" fill="#898989"/>
<path d="M1328.71 886.737H1223.15L1205.62 839.572H1197.25C1185.57 856.903 1169.1 870.272 1147.86 879.681C1126.88 888.841 1102.44 893.422 1074.56 893.422C1029.94 893.422 995.151 881.29 970.187 857.026C945.488 832.763 933.139 798.72 933.139 754.897V507.929H1073.36V714.788C1073.36 740.042 1077.08 758.982 1084.52 771.609C1092.22 783.988 1104.57 790.178 1121.56 790.178C1145.73 790.178 1162.86 781.389 1172.95 763.81C1183.31 745.984 1188.49 716.026 1188.49 673.936V507.929H1328.71V886.737Z" fill="#898989"/>
<path d="M372.888 1062.05C326.943 1041.99 286.974 1031.97 252.981 1031.97C218.987 1031.97 192.562 1044.84 173.706 1070.59C154.851 1096.34 145.423 1131.87 145.423 1177.18C145.423 1271.01 183.798 1317.93 260.549 1317.93C295.605 1317.93 339.956 1307.78 393.603 1287.48V1398.89C350.048 1416.96 300.519 1426 245.013 1426C165.872 1426 105.188 1404.58 62.9615 1361.75C21.0006 1318.92 0.0201703 1257.15 0.0201703 1176.43C-0.51098 1126.17 9.44809 1081.85 29.8974 1043.48C50.6123 1004.85 80.3567 975.144 119.131 954.347C157.905 933.302 202.92 923.027 254.176 923.522C311.009 923.522 365.053 935.035 416.309 958.06L372.888 1062.05Z" fill="#898989"/>
<path d="M596.595 1040.51V1419.32H456.371V1040.51H596.595ZM602.172 946.548C602.172 984.676 577.208 1003.74 527.28 1003.74C477.617 1003.74 452.786 984.676 452.786 946.548C452.786 926.493 458.628 911.762 470.314 902.353C482.265 892.945 501.12 888.241 526.881 888.241C552.908 888.241 571.896 893.069 583.847 902.725C596.064 912.381 602.172 926.988 602.172 946.548Z" fill="#898989"/>
<path d="M823.936 1285.99C823.936 1310.5 836.551 1322.76 861.78 1322.76C880.37 1322.76 902.944 1318.42 929.502 1309.76V1404.83C912.24 1412.01 894.712 1417.33 876.918 1420.8C859.39 1424.27 838.941 1426 815.57 1426C769.095 1426 735.234 1415.35 713.988 1394.06C693.007 1372.77 682.517 1339.59 682.517 1294.53V1138.55H633.518V1085.44L695.663 1044.22L731.914 964.745H823.936V1040.51H923.526V1138.55H823.936V1285.99Z" fill="#898989"/>
<path d="M1331 1419.32H1234.2L1207.11 1369.18H1204.32C1186 1390.72 1166.74 1405.57 1146.56 1413.74C1126.64 1421.91 1101.28 1426 1070.47 1426C1031.96 1426 1001.82 1415.23 980.042 1393.69C958.265 1372.15 947.377 1342.19 947.377 1303.82C947.377 1226.07 1005.94 1184.97 1123.05 1180.52L1191.17 1178.29V1173.09C1191.17 1141.89 1174.58 1126.3 1141.38 1126.3C1112.17 1126.3 1074.59 1135.58 1028.64 1154.15L988.01 1067.99C1035.55 1045.21 1095.3 1033.82 1167.27 1033.82C1219.33 1033.82 1259.56 1045.95 1287.98 1070.22C1316.66 1094.48 1331 1128.03 1331 1170.86V1419.32ZM1090.39 1298.99C1090.39 1322.26 1103.67 1333.9 1130.23 1333.9C1147.22 1333.9 1161.7 1328.95 1173.65 1319.04C1185.6 1309.14 1191.57 1296.02 1191.57 1279.68V1250.34L1159.31 1251.45C1113.36 1253.43 1090.39 1269.28 1090.39 1298.99Z" fill="#898989"/>
<path d="M996.604 120.098V333H938.848V246.286H871.872V333H814.116V120.098H871.872V199.047H938.848V120.098H996.604ZM1173.41 333H1134.1L1123.1 311.16H1121.97C1114.53 320.543 1106.71 327.014 1098.51 330.573C1090.42 334.132 1080.12 335.912 1067.61 335.912C1051.97 335.912 1039.73 331.22 1030.89 321.837C1022.04 312.454 1017.62 299.404 1017.62 282.687C1017.62 248.821 1041.4 230.917 1088.97 228.976L1116.63 228.005V225.74C1116.63 212.151 1109.89 205.356 1096.41 205.356C1084.54 205.356 1069.28 209.4 1050.62 217.489L1034.12 179.957C1053.43 170.034 1077.69 165.073 1106.92 165.073C1128.06 165.073 1144.4 170.358 1155.94 180.927C1167.59 191.497 1173.41 206.111 1173.41 224.769V333ZM1075.7 280.583C1075.7 290.722 1081.09 295.791 1091.88 295.791C1098.78 295.791 1104.66 293.634 1109.51 289.32C1114.36 285.005 1116.79 279.289 1116.79 272.171V259.39L1103.69 259.876C1085.03 260.738 1075.7 267.641 1075.7 280.583ZM1323.27 289.481V333H1186.72V300.482L1255 211.504H1190.61V167.985H1320.03V203.253L1254.67 289.481H1323.27Z" fill="#FB621F"/>
<defs>
<linearGradient id="paint0_linear" x1="2137.52" y1="151" x2="2137.52" y2="1585.15" gradientUnits="userSpaceOnUse">
<stop stop-color="#F64C01"/>
<stop offset="1" stop-color="#FF773A"/>
</linearGradient>
<linearGradient id="paint1_linear" x1="1831.74" y1="29.9642" x2="1831.74" y2="269.678" gradientUnits="userSpaceOnUse">
<stop stop-color="#F64C01"/>
<stop offset="1" stop-color="#FF773A"/>
</linearGradient>
<linearGradient id="paint2_linear" x1="2466.15" y1="29.9642" x2="2466.15" y2="269.678" gradientUnits="userSpaceOnUse">
<stop stop-color="#F64C01"/>
<stop offset="1" stop-color="#FF773A"/>
</linearGradient>
<linearGradient id="paint3_linear" x1="2149.93" y1="484" x2="2149.93" y2="1366" gradientUnits="userSpaceOnUse">
<stop stop-color="#F64C01"/>
<stop offset="1" stop-color="#FF773A"/>
</linearGradient>
<linearGradient id="paint4_linear" x1="2149.93" y1="484" x2="2149.93" y2="1366" gradientUnits="userSpaceOnUse">
<stop stop-color="#F64C01"/>
<stop offset="1" stop-color="#FF773A"/>
</linearGradient>
<linearGradient id="paint5_linear" x1="2149.93" y1="484" x2="2149.93" y2="1366" gradientUnits="userSpaceOnUse">
<stop stop-color="#F64C01"/>
<stop offset="1" stop-color="#FF773A"/>
</linearGradient>
<linearGradient id="paint6_linear" x1="2149.93" y1="484" x2="2149.93" y2="1366" gradientUnits="userSpaceOnUse">
<stop stop-color="#F64C01"/>
<stop offset="1" stop-color="#FF773A"/>
</linearGradient>
</defs>
</svg>
