<svg xmlns="http://www.w3.org/2000/svg" viewBox="0 0 600 600" width="600" height="600">
	<style>
		tspan { white-space:pre }
		.shp0 { fill: #c7c5c4 } 
	</style>
	<path id="Shape 6" class="shp0" d="M80.92 248.5L520.08 248.5L520.08 508.5L80.92 508.5L80.92 248.5ZM197.89 205.59C196.01 207.11 193.62 207.87 190.71 207.87L170.75 207.87C167.84 207.87 165.45 207.11 163.58 205.59C161.7 204.07 160.77 202.12 160.77 199.75L160.77 126.62C160.77 124.26 161.7 122.31 163.58 120.79C165.45 119.26 167.84 118.5 170.75 118.5L190.71 118.5C193.62 118.5 196.01 119.26 197.89 120.79C199.76 122.31 200.69 124.26 200.69 126.62L200.69 199.75C200.69 202.12 199.76 204.07 197.89 205.59ZM437.42 205.59C435.55 207.11 433.16 207.87 430.25 207.87L410.29 207.87C407.37 207.87 404.99 207.11 403.11 205.59C401.24 204.07 400.31 202.12 400.31 199.75L400.31 126.62C400.31 124.26 401.24 122.31 403.11 120.79C404.99 119.26 407.37 118.5 410.29 118.5L430.25 118.5C433.16 118.5 435.55 119.26 437.42 120.79C439.3 122.31 440.23 124.26 440.23 126.62L440.23 199.75C440.23 202.12 439.3 204.07 437.42 205.59ZM548.15 160.65C540.24 154.22 530.89 151 520.08 151L480.15 151L480.15 126.62C480.15 115.45 475.27 105.89 465.49 97.93C455.72 89.98 443.97 86 430.25 86L410.29 86C396.56 86 384.82 89.98 375.04 97.93C365.27 105.89 360.38 115.45 360.38 126.62L360.38 151L240.62 151L240.62 126.62C240.62 115.45 235.73 105.89 225.96 97.93C216.18 89.98 204.44 86 190.71 86L170.75 86C157.03 86 145.28 89.98 135.51 97.93C125.73 105.89 120.85 115.45 120.85 126.62L120.85 151L80.92 151C70.11 151 60.75 154.22 52.85 160.65C44.95 167.08 41 174.7 41 183.5L41 508.5C41 517.3 44.95 524.92 52.85 531.35C60.75 537.78 70.11 541 80.92 541L520.08 541C530.89 541 540.24 537.78 548.15 531.35C556.05 524.92 560 517.3 560 508.5L560 183.5C560 174.7 556.05 167.08 548.15 160.65Z" />
</svg>