<svg xmlns="http://www.w3.org/2000/svg" viewBox="0 0 256 256" width="256" height="256">
	<style>
		tspan { white-space:pre }
		.shp0 { fill: none;stroke: #f55b00;stroke-linecap:round;stroke-width: 5 } 
	</style>
	<path id="Shape 5" class="shp0" d="M32.5 60.14C32.25 59.91 51.2 26.64 85.46 36.47" />
	<path id="Shape 5 copy" class="shp0" d="M42.45 63.42C42.25 63.32 53.74 42.95 79.18 44.23" />
	<path id="Shape 5 copy 2" class="shp0" d="M53 68.39C52.86 68.32 60.86 54.15 78.55 55.04" />
	<path id="Shape 5 copy 3" class="shp0" d="M169.27 33C169.32 32.66 207.54 30.24 218.12 64.28" />
	<path id="Shape 5 copy 4" class="shp0" d="M171.99 43.11C171.96 42.9 195.3 41.32 208.2 63.29" />
	<path id="Shape 5 copy 5" class="shp0" d="M173.63 54.67C173.6 54.51 189.84 53.42 198.81 68.7" />
	<path id="Shape 5" class="shp0" d="M124 44L131 44L131 54L124 54L124 44Z" />
	<path id="Shape 5" class="shp0" d="M17 163C17 163 14.68 54.38 128 54C241.32 53.62 241 163 241 163" />
	<path id="Shape 5" class="shp0" d="" />
	<path id="Shape 1" class="shp0" d="M6 199L248 199L248 234L6 234L6 199Z" />
	<path id="Shape 2" class="shp0" d="M9 163L244 163L244 182L9 182L9 163Z" />
	<path id="Shape 3" class="shp0" d="M75 182L179 182L179 199L75 199L75 182Z" />
	<path id="Shape 4" class="shp0" d="M110 31L145 31L145 44L110 44L110 31Z" />
</svg>