<svg xmlns="http://www.w3.org/2000/svg" viewBox="0 0 256 256" width="256" height="256">
	<style>
		tspan { white-space:pre }
		.shp0 { fill: none;stroke: #fff;stroke-width: 7 } 
	</style>
	<path id="Shape 2" class="shp0" d="" />
	<path id="Shape 2" class="shp0" d="M128 141C105.88 141 88 123.12 88 101C88 78.88 105.88 61 128 61C150.12 61 168 78.88 168 101C168 123.12 150.12 141 128 141Z" />
	<path id="Shape 2" class="shp0" d="M62 195C62 195 60.02 155.77 96 156C131.98 156.23 135 156 135 156L161 156C161 156 192.64 155.75 195 195" />
	<path id="Shape 1" class="shp0" d="M127.5 243C64.18 243 13 191.82 13 128.5C13 65.18 64.18 14 127.5 14C190.82 14 242 65.18 242 128.5C242 191.82 190.82 243 127.5 243Z" />
</svg>