<svg width="45" height="45" viewBox="0 0 45 45" fill="none" xmlns="http://www.w3.org/2000/svg">
<circle cx="22.5" cy="22.5" r="22"/>
<g clip-path="url(#clip0)">
<path d="M12.7558 15.8644L13.2857 14.276C13.4875 13.671 14.0517 13.2645 14.6892 13.2645H19.1429V11.8145C19.1429 11.0898 19.7322 10.5 20.4567 10.5H24.5352C25.2596 10.5 25.849 11.0898 25.849 11.8145V13.2645H30.3025C30.9402 13.2645 31.5044 13.671 31.7062 14.276L32.2361 15.8644C32.3567 16.2261 32.2956 16.6265 32.0727 16.9358C31.8499 17.2451 31.4894 17.4298 31.1081 17.4298H30.5542L29.3351 32.5051C29.2445 33.6237 28.2953 34.5 27.1737 34.5H17.5708C16.4494 34.5 15.5 33.6237 15.4096 32.5049L14.1905 17.4298H13.8838C13.5025 17.4298 13.142 17.2451 12.9192 16.936C12.6963 16.6267 12.6352 16.2261 12.7558 15.8644ZM24.4427 11.9062H20.5492V13.2645H24.4427V11.9062ZM16.8113 32.3915C16.8431 32.7854 17.1767 33.0938 17.5708 33.0938H27.1737C27.5678 33.0938 27.9014 32.7854 27.9333 32.3915L29.1434 17.4298H15.6013L16.8113 32.3915ZM30.8066 16.0236L30.372 14.7209C30.3622 14.6909 30.3341 14.6708 30.3025 14.6708H14.6892C14.6576 14.6708 14.6297 14.6909 14.6197 14.7209L14.1852 16.0236H30.8066Z"/>
<path d="M19.0539 32.3417C19.0415 32.3424 19.0292 32.3426 19.0167 32.3426C18.6452 32.3426 18.3347 32.0515 18.3153 31.6761L17.655 19.0012C17.6348 18.6133 17.9329 18.2825 18.3206 18.2623C18.7093 18.2416 19.0391 18.5401 19.0594 18.9279L19.7195 31.6029C19.7396 31.9907 19.4417 32.3215 19.0539 32.3417Z"/>
<path d="M26.6452 31.6778C26.6247 32.0526 26.3145 32.3426 25.9437 32.3426C25.9309 32.3426 25.9177 32.3423 25.9047 32.3415C25.5171 32.3205 25.2199 31.989 25.241 31.6012L25.9325 18.9263C25.9536 18.5385 26.285 18.2413 26.6728 18.2625C27.0605 18.2836 27.3577 18.615 27.3366 19.0028L26.6452 31.6778Z"/>
</g>
<defs>
<clipPath id="clip0">
<rect width="24" height="24" transform="matrix(-1 0 0 1 34.5 10.5)" fill="white"/>
</clipPath>
</defs>
</svg>
