<svg viewBox="0 0 27 27" fill="none" xmlns="http://www.w3.org/2000/svg">
<path d="M0.245057 12.9328L4.6585 8.77901C4.88468 8.56601 5.2159 8.5079 5.5012 8.63119C5.78644 8.75443 5.97111 9.0354 5.97111 9.34617V11.1635H11.1634V5.97117H9.34611C9.0354 5.97117 8.75438 5.78649 8.63114 5.50125C8.5079 5.21601 8.56596 4.88478 8.77896 4.65855L12.9328 0.245057C13.08 0.0886992 13.2853 0 13.5 0C13.7147 0 13.92 0.0886992 14.0672 0.245057L18.221 4.65855C18.434 4.88478 18.492 5.21601 18.3688 5.50125C18.2456 5.78649 17.9646 5.97117 17.6538 5.97117H15.8365V11.1635H21.0288V9.34617C21.0288 9.03545 21.2135 8.75443 21.4988 8.63119C21.784 8.50795 22.1152 8.56601 22.3414 8.77901L26.7549 12.9328C26.9113 13.08 27 13.2853 27 13.5C27 13.7147 26.9113 13.92 26.7549 14.0672L22.3415 18.221C22.1153 18.434 21.7841 18.4921 21.4988 18.3688C21.2136 18.2456 21.0289 17.9646 21.0289 17.6538V15.8365H15.8366V21.0288H17.6539C17.9646 21.0288 18.2456 21.2135 18.3689 21.4987C18.4921 21.784 18.434 22.1152 18.221 22.3414L14.0672 26.7549C13.9201 26.9113 13.7148 26.9999 13.5001 26.9999C13.2853 26.9999 13.0801 26.9112 12.9329 26.7549L8.77906 22.3414C8.56607 22.1152 8.50801 21.784 8.63125 21.4987C8.75449 21.2135 9.03545 21.0288 9.34622 21.0288H11.1636V15.8365H5.97122V17.6538C5.97122 17.9645 5.78654 18.2456 5.5013 18.3688C5.21601 18.492 4.88479 18.434 4.65861 18.221L0.245161 14.0672C0.0887513 13.92 0.000106215 13.7147 0.000106215 13.5C0.000106215 13.2853 0.0886994 13.08 0.245057 12.9328Z" fill="#F44F00"/>
<rect x="9" y="9" width="9" height="9" fill="white"/>
</svg>
