<svg width="47" height="47" viewBox="0 0 47 47" fill="none" xmlns="http://www.w3.org/2000/svg">
<circle cx="23.5" cy="23.5" r="23" stroke="#FF4F00"/>
<path d="M28.7881 12.2369C27.3085 13.6577 13.9504 26.265 13.9504 26.265L11 35L20.0971 32.167C20.0971 32.167 32.8053 19.7432 34.5 18C36.1947 16.2568 30.2677 10.8162 28.7881 12.2369ZM33 17.5L31.5 19L29.5 17L27.5 15L29.2485 13.5C29.2485 13.5 30.168 13.168 32 15C33.832 16.832 33 17.5 33 17.5ZM14.9099 27.9336L18.3593 31.2457L13.2542 32.8356L14.082 30.3846L14.9099 27.9336ZM15.6102 26.6387L26.5059 16.1766L28.0426 17.6521L17.1469 28.1141L15.6102 26.6387ZM18.1713 29.0978L29.067 18.6357L30.6037 20.1112L19.708 30.5733L18.1713 29.0978Z" fill="#FF4F00"/>
</svg>
