<svg width="45" height="45" viewBox="0 0 45 45" fill="none" xmlns="http://www.w3.org/2000/svg">
<circle cx="22.5" cy="22.5" r="21.5" stroke="#FF4F00" stroke-width="2"/>
<g clip-path="url(#clip0)">
<path d="M27.5631 11.7162C26.1465 13.0765 13.3569 25.1474 13.3569 25.1474L10.532 33.5107L19.242 30.7982C19.242 30.7982 31.4094 18.9031 33.032 17.2341C34.6546 15.5651 28.9798 10.356 27.5631 11.7162ZM31.5958 16.7553L30.1596 18.1915L28.2447 16.2766L26.3299 14.3617L28.004 12.9256C28.004 12.9256 28.8843 12.6077 30.6384 14.3617C32.3924 16.1157 31.5958 16.7553 31.5958 16.7553ZM14.2755 26.7449L17.5782 29.9162L12.6902 31.4383L13.4829 29.0916L14.2755 26.7449ZM14.946 25.5051L25.3781 15.4883L26.8493 16.901L16.4173 26.9178L14.946 25.5051ZM17.3981 27.8596L27.8302 17.8427L29.3015 19.2554L18.8694 29.2723L17.3981 27.8596Z" fill="#FF4F00"/>
</g>
<defs>
<clipPath id="clip0">
<rect width="23.9362" height="24.8936" fill="white" transform="translate(10.532 10.5319)"/>
</clipPath>
</defs>
</svg>
