<svg width="24" height="31" viewBox="0 0 24 31" fill="none" xmlns="http://www.w3.org/2000/svg">
<path d="M5.41508 15.1287V13.1346C3.05685 14.3878 1.19559 16.9493 0.646742 18.5965C0.0978943 20.2438 -0.133322 22.2378 0.473329 24.3186C1.07998 26.3993 3.07428 28.6101 4.63483 29.5204C6.19538 30.4307 7.62588 30.7775 9.53322 30.7775C11.4406 30.7775 13.4348 29.9972 14.7784 28.9135C16.122 27.8298 16.8551 26.8334 17.8562 25.0988C17.3593 24.3468 17.2412 24.0652 16.8157 23.2348C16.6867 24.0758 16.6142 24.5473 16.0355 25.489C14.877 27.1309 12.7843 28.9135 10.4435 29.2603C8.1027 29.6071 6.58526 29.0435 4.98159 27.9598C3.37791 26.8761 2.16396 25.3156 1.77382 22.5846C1.38369 19.8536 2.47775 17.2207 5.41508 15.1287Z" fill="#FF4F00"/>
<path d="M12.3075 2.86101C12.3075 4.4411 11.0266 5.72201 9.4465 5.72201C7.86641 5.72201 6.5855 4.4411 6.5855 2.86101C6.5855 1.28092 7.86641 0 9.4465 0C11.0266 0 12.3075 1.28092 12.3075 2.86101Z" fill="#FF4F00"/>
<path d="M9.31646 6.28554C7.9293 6.28554 6.5855 7.71605 6.5855 8.23623L6.5855 9.21828C6.5855 11.6491 6.58551 17.7071 6.5855 18.5965C6.58548 19.6803 7.45249 20.5906 8.62288 20.5906C9.79327 20.5906 15.732 20.5472 16.4256 20.8073C17.1192 21.0674 20.8472 28.3066 21.1506 28.5234C21.4541 28.7401 22.3975 28.7767 23.058 28.3066C23.5248 27.8048 23.7082 27.1796 23.6215 26.616C23.5348 26.0525 18.9398 17.8596 18.2896 17.5562C17.6394 17.2527 12.0041 17.3828 12.0041 17.3828V13.6982C12.0041 13.6982 16.6535 13.6604 16.7724 13.6982C16.8914 13.7359 17.5527 13.3947 17.5527 12.7878C17.5527 12.181 17.2597 11.8299 16.7724 11.5307H12.0041V8.23623C12.0041 7.62935 10.7036 6.28554 9.31646 6.28554Z" fill="#FF4F00"/>
</svg>
