<svg xmlns="http://www.w3.org/2000/svg" viewBox="0 0 512 512" width="512" height="512">
	<style>
		tspan { white-space:pre }
		.shp0n { fill: #ffff00 } 
		.shp1 { fill: #000000 } 
	</style>
	<path id="Layer 1" class="shp0n" d="M256.5 489C127.93 489 24 385.07 24 256.5C24 127.93 127.93 24 256.5 24C385.07 24 489 127.93 489 256.5C489 385.07 385.07 489 256.5 489Z" />
	<path id="Shape 2" class="shp1" d="M163 344L350 344L350 362L163 362L163 344Z" />
	<path id="Shape 1" class="shp1" d="M209 297C195.73 297 185 270.63 185 238C185 205.37 195.73 179 209 179C222.27 179 233 205.37 233 238C233 270.63 222.27 297 209 297Z" />
	<path id="Shape 1 copy" class="shp1" d="M297 296C283.73 296 273 269.63 273 237C273 204.37 283.73 178 297 178C310.27 178 321 204.37 321 237C321 269.63 310.27 296 297 296Z" />
</svg>