<svg width="15" height="31" viewBox="0 0 15 31" fill="none" xmlns="http://www.w3.org/2000/svg">
<path d="M12.7141 2.86101C12.7141 4.4411 11.4332 5.72201 9.85308 5.72201C8.27299 5.72201 6.99208 4.4411 6.99208 2.86101C6.99208 1.28092 8.27299 0 9.85308 0C11.4332 0 12.7141 1.28092 12.7141 2.86101Z" fill="#FF4F00"/>
<path d="M0.186466 13.3514C0.35974 13.0479 5.04151 6.3289 6.12522 5.8954C7.20894 5.46191 8.55274 5.9821 8.94288 6.67569C9.33302 7.36927 10.1566 10.1436 10.5034 10.6204C10.8502 11.0972 13.8412 13.3947 14.1012 13.8715C14.3613 14.3484 14.2278 15.0087 13.4945 15.302C13.4945 15.302 13.4944 30.5607 13.4945 30.8208C13.4946 31.0809 12.8877 31.0376 12.8876 30.8208C12.8875 30.6041 12.9742 15.302 12.8876 15.302C12.801 15.302 12.6707 15.2154 12.6707 15.2154C12.6707 15.2154 9.15963 12.3543 8.81284 11.9209C8.46605 11.4874 8.46605 10.6204 8.2493 10.6204C8.03256 10.6204 4.21788 15.4321 4.21788 15.8656C4.21788 16.2991 7.46903 21.891 7.38233 22.7146C7.29564 23.5383 5.56169 29.7371 5.3016 30.2573C5.04151 30.7775 3.8711 30.8642 3.43761 30.8208C3.00412 30.7775 1.83371 29.8672 2.13715 29.0435C2.44059 28.2199 3.8711 23.3215 3.82775 22.7146C3.7844 22.1078 0.500644 15.7789 0.186466 15.302C-0.127711 14.8252 0.0131926 13.6548 0.186466 13.3514Z" fill="#FF4F00"/>
</svg>
