<svg width="13" height="31" viewBox="0 0 13 31" fill="none" xmlns="http://www.w3.org/2000/svg">
<path d="M8.66342 2.86101C8.66342 4.4411 7.38251 5.72201 5.80241 5.72201C4.22232 5.72201 2.94141 4.4411 2.94141 2.86101C2.94141 1.28092 4.22232 0 5.80241 0C7.38251 0 8.66342 1.28092 8.66342 2.86101Z" fill="#FF4F00"/>
<path fill-rule="evenodd" clip-rule="evenodd" d="M3.54829 6.89242L0.990723 23.4516H4.28521C4.28521 23.4516 4.15517 29.4337 4.28521 30.0406C4.41526 30.6474 5.41228 30.8642 5.84576 30.8642C6.27925 30.8642 6.92948 30.7341 7.18957 30.0406C7.44966 29.347 7.18957 23.4516 7.18957 23.4516H11.2643L10.6141 19.8536C12.139 18.69 12.7863 17.7732 12.9549 15.6488C13.1235 13.5244 11.6111 11.9642 10.6141 11.1839C9.61709 10.4037 9.16257 9.84807 8.49003 8.79976L8.22994 6.89242C8.12724 6.4915 7.94063 6.39277 7.53636 6.28554H4.28521C3.81827 6.42252 3.70324 6.58117 3.54829 6.89242ZM5.05832 9.80071C4.93358 11.3783 4.88901 11.942 5.32552 13.4814C6.19255 15.2154 7.29449 15.7751 8.9668 16.3424C9.7998 16.4779 10.2518 16.4541 11.0475 16.2557C11.4239 15.9728 11.481 15.7355 11.481 15.302C11.481 14.8686 11.351 14.5218 10.9175 14.4784C10.7827 14.4649 10.6479 14.4766 10.4936 14.49C10.1516 14.5196 9.71357 14.5575 8.9668 14.3484C7.8831 14.0449 7.23285 12.9612 6.97277 12.5277C6.71269 12.0942 6.66932 9.88347 6.66932 9.79677C6.66932 9.71008 6.62597 9.27659 6.14914 9.14654C5.67232 9.01649 5.10673 9.49334 5.06549 9.71008C5.06307 9.74066 5.06068 9.77087 5.05832 9.80071Z" fill="#FF4F00"/>
</svg>
