<svg width="18" height="16" viewBox="0 0 18 16" fill="none" xmlns="http://www.w3.org/2000/svg">
<g clip-path="url(#clip0)">
<path d="M1.69188 3.57629L2.08931 2.51733C2.24064 2.11401 2.66375 1.84302 3.14193 1.84302H6.48219V0.876343C6.48219 0.393188 6.92411 0 7.46753 0H10.5264C11.0697 0 11.5117 0.393188 11.5117 0.876343V1.84302H14.8518C15.3302 1.84302 15.7533 2.11401 15.9046 2.51733L16.302 3.57629C16.3925 3.81738 16.3467 4.08435 16.1795 4.29053C16.0124 4.4967 15.742 4.61987 15.4561 4.61987H15.0407L14.1263 14.67C14.0584 15.4158 13.3464 16 12.5053 16H5.30308C4.46208 16 3.75003 15.4158 3.68219 14.6699L2.76785 4.61987H2.53782C2.2519 4.61987 1.9815 4.4967 1.81437 4.29065C1.64724 4.08447 1.60138 3.81738 1.69188 3.57629ZM10.457 0.9375H7.53688V1.84302H10.457V0.9375ZM4.73344 14.5944C4.75734 14.8569 5.00755 15.0625 5.30308 15.0625H12.5053C12.8008 15.0625 13.0511 14.8569 13.0749 14.5944L13.9826 4.61987H3.82597L4.73344 14.5944ZM15.2299 3.68237L14.904 2.81396C14.8966 2.79395 14.8756 2.78052 14.8518 2.78052H3.14193C3.11818 2.78052 3.0973 2.79395 3.08975 2.81396L2.76387 3.68237H15.2299Z" fill="#FF4F00"/>
</g>
<defs>
<clipPath id="clip0">
<rect width="18" height="16" fill="white" transform="matrix(-1 0 0 1 18 0)"/>
</clipPath>
</defs>
</svg>
